# xmcd
#
# Track frame offsets:
#	150
#	16342
#	30725
#	47735
#	64020
#	80442
#	95900
#	110982
#
# Disc length: 1720 seconds
#
# Revision: 0
# Processed by: cddbd v1.4PL0 Copyright (c) Steve Scherf et al.
# Submitted via: audiograbber 1.81.03
#
DISCID=6906b608
DTITLE=Gala - Budim se
DYEAR=1994
DGENRE=Dance
TTITLE0=Budim se
TTITLE1=Ne moze to tako
TTITLE2=Hocu opet
TTITLE3=Zajedno
TTITLE4=Ludilo
TTITLE5=Ja ti placam dugove
TTITLE6=On je moj tip
TTITLE7=Ako odes ti
EXTD=
EXTT0=
EXTT1=
EXTT2=
EXTT3=
EXTT4=
EXTT5=
EXTT6=
EXTT7=
PLAYORDER=
